<?xml version="1.0" encoding="utf-8"?>
<svg version="1.1" id="Capa_1" x="0px" y="0px" viewBox="0 0 275 275" style="enable-background:new 0 0 512 512;" xmlns="http://www.w3.org/2000/svg">
  <path style="stroke: rgb(0, 0, 0); stroke-width: 15px; stroke-linejoin: round; fill: rgb(101, 66, 25);" d="M 70.359 266.034 L 207.178 264.968 C 207.178 264.968 160.77 218.351 168.861 131.856 C 181.506 91.692 210.282 76.077 209.532 63.852 C 208.782 51.627 204.942 48.678 196.122 50.41 C 187.302 52.142 169.927 85.453 163.48 79.341 C 157.033 73.229 171.535 27.556 168.613 18.579 C 165.691 9.602 153.155 6.53 145.471 14.873 C 137.787 23.216 135.537 90.891 126.939 96.156 C 118.341 101.421 87.952 44.34 78.392 40.025 C 68.832 35.71 57.959 43.804 57.12 51.975 C 56.281 60.146 109.303 120.779 105.411 140.713 C 108.215 160.146 100.064 230.186 70.359 266.034 Z">
    <title>Trunk</title>
  </path>
</svg>