<?xml version="1.0" encoding="utf-8"?>
<svg version="1.1" id="Capa_1" x="0px" y="0px" viewBox="0 0 275 275" style="enable-background:new 0 0 512 512;" xmlns="http://www.w3.org/2000/svg">
  <path style="stroke: rgb(0, 0, 0); stroke-width: 15px; stroke-linejoin: round; fill: rgb(101, 66, 25);" d="M 70.359 266.034 L 207.178 264.968 C 207.178 264.968 160.77 218.351 168.861 131.856 C 181.506 91.692 210.282 76.077 209.532 63.852 C 208.782 51.627 204.942 48.678 196.122 50.41 C 187.302 52.142 169.927 85.453 163.48 79.341 C 157.033 73.229 171.535 27.556 168.613 18.579 C 165.691 9.602 153.155 6.53 145.471 14.873 C 137.787 23.216 135.537 90.891 126.939 96.156 C 118.341 101.421 87.952 44.34 78.392 40.025 C 68.832 35.71 57.959 43.804 57.12 51.975 C 56.281 60.146 109.303 120.779 105.411 140.713 C 108.215 160.146 100.064 230.186 70.359 266.034 Z">
    <title>Trunk</title>
  </path>
  <path style="stroke: rgb(0, 0, 0); stroke-width: 15px; stroke-linecap: round; stroke-linejoin: round; fill: rgb(22, 129, 40);" d="M 109.575 183.605 C 109.575 183.605 68.94 197.714 58.278 167.171 C 25.723 170.99 -17.429 114.349 41.515 87.135 C 26.602 73.429 41.665 15.557 97.876 36.239 C 94.813 21.379 148.31 -17.447 177.698 35.258 C 200.511 21.315 253.977 46.408 232.966 86.503 C 272.905 93.954 272.905 163.296 216.804 167.19 C 214.449 190.643 173.109 193.974 160.6 180.853 C 138.933 180.425 135.929 181.64 109.575 183.605 Z">
    <title>Tree</title>
  </path>
</svg>